<svg version="1.1" id="Ebene_1" xmlns="http://www.w3.org/2000/svg" xmlns:xlink="http://www.w3.org/1999/xlink" x="0px" y="0px" width="270.378px" height="53.9px" viewBox="0 0 270.378 53.9" enable-background="new 0 0 270.378 53.9" xml:space="preserve">
<g>
	<g>
		<g>
			<path fill="#5C6971" d="M58.606,50.492c0,0.242-0.049,0.461-0.146,0.655c-0.097,0.193-0.23,0.356-0.4,0.488
				c-0.169,0.132-0.368,0.232-0.594,0.303c-0.227,0.07-0.466,0.105-0.72,0.105h-1.374v-5.387h1.471c0.21,0,0.414,0.026,0.611,0.08
				c0.196,0.054,0.369,0.136,0.517,0.246c0.148,0.11,0.266,0.25,0.355,0.42c0.089,0.17,0.134,0.37,0.134,0.602
				c0,0.146-0.033,0.284-0.097,0.416c-0.064,0.131-0.145,0.25-0.242,0.354c-0.097,0.105-0.204,0.194-0.319,0.267
				s-0.228,0.125-0.335,0.157c0.15,0.027,0.295,0.077,0.432,0.149c0.138,0.073,0.259,0.166,0.364,0.278
				c0.105,0.113,0.188,0.245,0.25,0.393C58.575,50.168,58.606,50.325,58.606,50.492z M57.865,48.03c0-0.274-0.095-0.491-0.284-0.653
				c-0.189-0.16-0.434-0.241-0.737-0.241h-0.882v1.861h0.858c0.135,0,0.265-0.024,0.389-0.072c0.124-0.049,0.235-0.116,0.332-0.202
				c0.097-0.085,0.176-0.188,0.235-0.306S57.865,48.17,57.865,48.03z M57.993,50.467c0-0.312-0.107-0.558-0.32-0.738
				c-0.213-0.18-0.489-0.271-0.829-0.271h-0.882v2.107h0.882c0.156,0,0.305-0.027,0.445-0.081s0.263-0.13,0.368-0.226
				c0.105-0.098,0.188-0.213,0.247-0.348S57.993,50.629,57.993,50.467z"></path>
		</g>
		<g>
			<path fill="#5C6971" d="M61.69,52.044l-0.003-0.571c-0.016,0.032-0.055,0.086-0.117,0.162c-0.062,0.075-0.144,0.149-0.247,0.226
				c-0.102,0.075-0.219,0.141-0.35,0.198c-0.132,0.056-0.273,0.084-0.424,0.084c-0.355,0-0.646-0.1-0.875-0.298
				c-0.229-0.2-0.343-0.479-0.343-0.841c0-0.172,0.05-0.33,0.149-0.476c0.1-0.146,0.226-0.272,0.379-0.38
				c0.153-0.107,0.32-0.199,0.5-0.274s0.348-0.129,0.504-0.161l0.791-0.178v-0.267c0-0.264-0.071-0.486-0.214-0.666
				c-0.143-0.181-0.359-0.271-0.65-0.271c-0.086,0-0.183,0.016-0.291,0.049c-0.107,0.032-0.209,0.068-0.307,0.108
				s-0.185,0.081-0.263,0.121s-0.127,0.068-0.149,0.085l-0.17-0.437c0.021-0.016,0.073-0.043,0.153-0.081
				c0.081-0.038,0.178-0.079,0.291-0.122c0.113-0.043,0.239-0.081,0.376-0.112c0.137-0.033,0.276-0.049,0.416-0.049
				c0.409,0,0.736,0.114,0.982,0.343s0.369,0.563,0.369,1.005v2.802H61.69z M61.655,49.944l-0.677,0.146
				c-0.113,0.027-0.234,0.067-0.363,0.121s-0.246,0.118-0.351,0.193c-0.104,0.076-0.192,0.162-0.262,0.259
				c-0.07,0.098-0.105,0.202-0.105,0.314c0,0.227,0.069,0.404,0.206,0.533c0.137,0.13,0.305,0.194,0.504,0.194
				c0.124,0,0.243-0.025,0.358-0.076c0.116-0.052,0.22-0.116,0.314-0.194c0.094-0.078,0.173-0.161,0.237-0.25
				c0.064-0.09,0.11-0.174,0.137-0.255V49.944z"></path>
		</g>
		<g>
			<path fill="#5C6971" d="M65.864,52.044l-0.002-0.571c-0.016,0.032-0.054,0.086-0.113,0.161c-0.059,0.076-0.136,0.15-0.23,0.227
				c-0.094,0.075-0.199,0.141-0.314,0.198c-0.116,0.056-0.232,0.084-0.351,0.084c-0.28,0-0.516-0.066-0.709-0.197
				c-0.194-0.132-0.352-0.305-0.476-0.518c-0.124-0.212-0.213-0.452-0.27-0.719s-0.084-0.531-0.084-0.796
				c0-0.242,0.036-0.482,0.108-0.723c0.073-0.239,0.176-0.457,0.311-0.65c0.135-0.193,0.297-0.35,0.488-0.468
				c0.191-0.119,0.402-0.178,0.633-0.178c0.123,0,0.24,0.026,0.351,0.08c0.11,0.054,0.208,0.117,0.294,0.19
				c0.086,0.072,0.157,0.145,0.214,0.217c0.056,0.073,0.095,0.131,0.117,0.174v-2.237h0.561v5.726H65.864z M65.829,49.171
				c-0.011-0.043-0.04-0.108-0.088-0.198c-0.048-0.089-0.113-0.179-0.193-0.271c-0.081-0.091-0.175-0.172-0.282-0.242
				c-0.107-0.069-0.225-0.104-0.354-0.104c-0.156,0-0.295,0.04-0.418,0.121c-0.124,0.081-0.229,0.192-0.318,0.335
				c-0.088,0.143-0.157,0.309-0.205,0.496c-0.048,0.188-0.072,0.391-0.072,0.605c0,0.188,0.018,0.388,0.052,0.598
				c0.035,0.21,0.093,0.401,0.173,0.573c0.08,0.173,0.185,0.315,0.313,0.429s0.288,0.169,0.475,0.169
				c0.118,0,0.232-0.032,0.342-0.097c0.11-0.064,0.206-0.141,0.286-0.227c0.08-0.086,0.146-0.171,0.197-0.254
				c0.051-0.084,0.082-0.146,0.093-0.189V49.171z"></path>
		</g>
		<g>
			<path fill="#5C6971" d="M67.961,50.112c0,0.161,0.02,0.334,0.061,0.519c0.041,0.183,0.104,0.354,0.19,0.514
				s0.196,0.291,0.331,0.396s0.296,0.158,0.485,0.158c0.113,0,0.225-0.013,0.335-0.036c0.11-0.024,0.213-0.053,0.307-0.085
				s0.176-0.065,0.247-0.101c0.07-0.035,0.126-0.066,0.169-0.094l0.169,0.469c-0.032,0.016-0.087,0.04-0.166,0.073
				c-0.078,0.031-0.172,0.063-0.283,0.096s-0.234,0.061-0.372,0.085s-0.281,0.036-0.432,0.036c-0.317,0-0.579-0.068-0.784-0.205
				c-0.205-0.139-0.368-0.315-0.489-0.534c-0.122-0.218-0.208-0.458-0.256-0.719c-0.048-0.262-0.073-0.518-0.073-0.771
				c0-0.199,0.032-0.417,0.097-0.654c0.064-0.236,0.16-0.456,0.287-0.658c0.127-0.201,0.283-0.37,0.469-0.505
				s0.403-0.201,0.65-0.201c0.275,0,0.507,0.064,0.695,0.192c0.188,0.13,0.341,0.294,0.457,0.493
				c0.116,0.198,0.199,0.416,0.251,0.652c0.051,0.236,0.077,0.463,0.077,0.678v0.202H67.961z M69.788,49.29
				c-0.035-0.161-0.088-0.312-0.161-0.45c-0.072-0.141-0.167-0.259-0.286-0.359c-0.118-0.099-0.261-0.148-0.427-0.148
				c-0.156,0-0.293,0.047-0.411,0.141s-0.215,0.211-0.29,0.351c-0.076,0.14-0.133,0.288-0.173,0.446
				c-0.041,0.159-0.061,0.306-0.061,0.439h1.862C69.841,49.591,69.823,49.451,69.788,49.29z"></path>
		</g>
		<g>
			<path fill="#5C6971" d="M73.882,52.044v-2.72c0-0.108-0.018-0.22-0.052-0.335c-0.035-0.116-0.084-0.222-0.148-0.315
				c-0.064-0.094-0.146-0.171-0.245-0.229c-0.099-0.06-0.212-0.089-0.341-0.089c-0.123,0-0.242,0.029-0.357,0.089
				c-0.115,0.059-0.216,0.131-0.305,0.214c-0.088,0.083-0.16,0.167-0.216,0.254c-0.056,0.086-0.087,0.155-0.092,0.21v2.922h-0.561
				v-4.057h0.537v0.565c0.01-0.027,0.045-0.076,0.104-0.149c0.059-0.072,0.137-0.146,0.233-0.222
				c0.096-0.075,0.206-0.143,0.33-0.201c0.123-0.058,0.254-0.086,0.394-0.086c0.214,0,0.402,0.038,0.563,0.117
				c0.161,0.077,0.293,0.181,0.398,0.311c0.104,0.129,0.184,0.275,0.237,0.44c0.054,0.164,0.081,0.328,0.081,0.495v2.786H73.882z"></path>
			<path fill="#5C6971" d="M75.666,49.838v-0.502h1.696v0.502H75.666z"></path>
		</g>
		<g>
			<path fill="#5C6971" d="M82.993,52.044h-0.654l-1.163-4.652l-1.147,4.652h-0.662l-1.245-5.387h0.623l0.977,4.651l1.147-4.651
				h0.654l1.155,4.651l0.969-4.651h0.59L82.993,52.044z"></path>
		</g>
		<g>
			<path fill="#5C6971" d="M87.434,52.044v-0.574c-0.016,0.027-0.053,0.078-0.109,0.153c-0.056,0.076-0.13,0.151-0.222,0.227
				c-0.091,0.076-0.198,0.143-0.318,0.203s-0.254,0.09-0.399,0.09c-0.22,0-0.41-0.039-0.568-0.117
				c-0.158-0.078-0.289-0.181-0.391-0.308c-0.102-0.126-0.178-0.273-0.226-0.44s-0.072-0.339-0.072-0.517v-2.773h0.56v2.725
				c0,0.124,0.015,0.244,0.044,0.359c0.029,0.116,0.073,0.219,0.132,0.308c0.059,0.088,0.136,0.161,0.232,0.218
				c0.097,0.057,0.215,0.085,0.354,0.085c0.128,0,0.249-0.033,0.361-0.102c0.112-0.066,0.211-0.144,0.297-0.229
				c0.085-0.087,0.153-0.173,0.205-0.259c0.051-0.086,0.079-0.146,0.084-0.179v-2.926h0.561v4.057H87.434z M86.231,46.893
				c0,0.102-0.037,0.189-0.109,0.262s-0.163,0.108-0.271,0.108c-0.107,0-0.197-0.036-0.267-0.108s-0.105-0.16-0.105-0.262
				c0-0.103,0.035-0.189,0.105-0.263c0.07-0.071,0.159-0.108,0.267-0.108c0.108,0,0.198,0.037,0.271,0.108
				C86.194,46.704,86.231,46.791,86.231,46.893z M87.619,46.893c0,0.102-0.036,0.189-0.108,0.262
				c-0.073,0.072-0.163,0.108-0.271,0.108c-0.108,0-0.197-0.036-0.267-0.108c-0.07-0.072-0.105-0.16-0.105-0.262
				c0-0.103,0.035-0.189,0.105-0.263c0.07-0.071,0.159-0.108,0.267-0.108c0.107,0,0.197,0.037,0.271,0.108
				C87.584,46.704,87.619,46.791,87.619,46.893z"></path>
		</g>
		<g>
			<path fill="#5C6971" d="M90.989,48.526c-0.032-0.016-0.081-0.039-0.145-0.068c-0.064-0.03-0.121-0.045-0.169-0.045
				c-0.108,0-0.21,0.032-0.307,0.093c-0.097,0.062-0.183,0.134-0.258,0.214c-0.076,0.081-0.136,0.16-0.182,0.238
				c-0.045,0.078-0.074,0.136-0.084,0.174v2.912h-0.561v-4.057h0.537v0.565c0.01-0.021,0.038-0.068,0.084-0.142
				c0.046-0.072,0.109-0.147,0.189-0.226c0.081-0.078,0.177-0.146,0.287-0.205c0.111-0.058,0.236-0.086,0.376-0.086
				c0.07,0,0.146,0.013,0.23,0.038c0.083,0.026,0.141,0.053,0.174,0.078L90.989,48.526z"></path>
		</g>
		<g>
			<path fill="#5C6971" d="M93.822,52.058c-0.048,0.013-0.102,0.025-0.162,0.035c-0.06,0.011-0.123,0.022-0.19,0.033
				s-0.128,0.016-0.182,0.016c-0.161,0-0.298-0.023-0.409-0.072s-0.2-0.115-0.268-0.198c-0.068-0.084-0.117-0.18-0.146-0.287
				c-0.029-0.107-0.044-0.219-0.044-0.331v-2.806h-0.678v-0.461h0.678V46.89h0.56v1.097h0.8v0.461h-0.8v2.748
				c0,0.114,0.026,0.223,0.077,0.328c0.052,0.104,0.139,0.157,0.263,0.157c0.076,0,0.159-0.015,0.25-0.044
				c0.091-0.029,0.153-0.055,0.186-0.077l0.169,0.461C93.906,52.032,93.87,52.044,93.822,52.058z"></path>
		</g>
		<g>
			<path fill="#5C6971" d="M96.576,52.058c-0.048,0.013-0.102,0.025-0.162,0.035c-0.059,0.011-0.123,0.022-0.189,0.033
				c-0.067,0.011-0.128,0.016-0.182,0.016c-0.161,0-0.297-0.023-0.408-0.072s-0.2-0.115-0.268-0.198
				c-0.068-0.084-0.116-0.18-0.146-0.287s-0.044-0.219-0.044-0.331v-2.806h-0.679v-0.461h0.679V46.89h0.56v1.097h0.799v0.461h-0.799
				v2.748c0,0.114,0.025,0.223,0.077,0.328c0.051,0.104,0.139,0.157,0.263,0.157c0.075,0,0.159-0.015,0.25-0.044
				c0.091-0.029,0.153-0.055,0.186-0.077l0.17,0.461C96.66,52.032,96.625,52.044,96.576,52.058z"></path>
			<path fill="#5C6971" d="M97.988,50.112c0,0.161,0.02,0.334,0.061,0.519c0.04,0.183,0.104,0.354,0.189,0.514
				c0.086,0.159,0.197,0.291,0.332,0.396c0.134,0.105,0.296,0.158,0.484,0.158c0.113,0,0.225-0.013,0.335-0.036
				c0.11-0.024,0.212-0.053,0.307-0.085c0.095-0.032,0.177-0.065,0.247-0.101c0.07-0.035,0.126-0.066,0.17-0.094l0.169,0.469
				c-0.032,0.016-0.087,0.04-0.166,0.073c-0.078,0.031-0.173,0.063-0.283,0.096c-0.111,0.032-0.234,0.061-0.372,0.085
				c-0.138,0.024-0.281,0.036-0.433,0.036c-0.317,0-0.579-0.068-0.783-0.205c-0.205-0.139-0.368-0.315-0.49-0.534
				c-0.122-0.218-0.207-0.458-0.256-0.719c-0.048-0.262-0.073-0.518-0.073-0.771c0-0.199,0.032-0.417,0.097-0.654
				c0.064-0.236,0.16-0.456,0.287-0.658c0.127-0.201,0.283-0.37,0.469-0.505c0.186-0.135,0.403-0.201,0.65-0.201
				c0.274,0,0.507,0.064,0.695,0.192c0.188,0.13,0.341,0.294,0.456,0.493c0.117,0.198,0.2,0.416,0.251,0.652
				c0.051,0.236,0.077,0.463,0.077,0.678v0.202H97.988z M99.814,49.29c-0.035-0.161-0.089-0.312-0.161-0.45
				c-0.072-0.141-0.168-0.259-0.286-0.359c-0.118-0.099-0.26-0.148-0.427-0.148c-0.156,0-0.292,0.047-0.411,0.141
				c-0.118,0.094-0.215,0.211-0.29,0.351c-0.076,0.14-0.133,0.288-0.173,0.446c-0.041,0.159-0.061,0.306-0.061,0.439h1.862
				C99.867,49.591,99.849,49.451,99.814,49.29z"></path>
			<path fill="#5C6971" d="M106.002,52.044v-2.72c0-0.119-0.014-0.236-0.04-0.352c-0.027-0.115-0.069-0.219-0.125-0.311
				c-0.056-0.092-0.133-0.165-0.229-0.223c-0.098-0.056-0.213-0.084-0.348-0.084c-0.14,0-0.265,0.025-0.375,0.076
				c-0.11,0.051-0.204,0.113-0.281,0.187c-0.079,0.072-0.142,0.148-0.19,0.229c-0.049,0.081-0.076,0.15-0.081,0.21v2.986h-0.56
				v-2.72c0-0.119-0.012-0.236-0.036-0.352c-0.025-0.115-0.066-0.219-0.121-0.311c-0.057-0.092-0.132-0.165-0.226-0.223
				c-0.094-0.056-0.214-0.084-0.359-0.084c-0.128,0-0.248,0.029-0.359,0.089c-0.11,0.059-0.206,0.131-0.286,0.214
				c-0.081,0.083-0.146,0.167-0.194,0.254c-0.048,0.086-0.077,0.155-0.088,0.21v2.922h-0.561v-4.057h0.537v0.565
				c0.016-0.021,0.05-0.068,0.101-0.142c0.051-0.072,0.118-0.147,0.202-0.226c0.083-0.078,0.185-0.146,0.306-0.205
				c0.121-0.058,0.258-0.086,0.409-0.086c0.199,0,0.365,0.026,0.496,0.08c0.133,0.055,0.241,0.117,0.328,0.19
				c0.086,0.072,0.151,0.145,0.193,0.218c0.043,0.073,0.076,0.131,0.098,0.174c0.016-0.027,0.052-0.077,0.108-0.149
				c0.057-0.073,0.132-0.146,0.227-0.222c0.094-0.076,0.207-0.144,0.339-0.202c0.131-0.06,0.279-0.089,0.441-0.089
				c0.23,0,0.426,0.038,0.585,0.117c0.159,0.077,0.286,0.181,0.384,0.311c0.096,0.129,0.165,0.275,0.206,0.44
				c0.041,0.164,0.061,0.328,0.061,0.495v2.786H106.002z"></path>
		</g>
		<g>
			<path fill="#5C6971" d="M111.008,49.913c0,0.265-0.038,0.527-0.114,0.792c-0.074,0.264-0.188,0.502-0.338,0.715
				s-0.337,0.387-0.557,0.521c-0.221,0.135-0.476,0.202-0.767,0.202c-0.081,0-0.185-0.007-0.311-0.021
				c-0.126-0.013-0.254-0.03-0.383-0.052c-0.13-0.021-0.251-0.044-0.363-0.064c-0.114-0.022-0.194-0.038-0.242-0.049v-5.639h0.56
				l-0.004,2.237c0.016-0.032,0.053-0.085,0.109-0.156c0.057-0.073,0.13-0.147,0.218-0.223c0.089-0.075,0.189-0.142,0.303-0.198
				c0.113-0.056,0.232-0.084,0.355-0.084c0.275,0,0.509,0.063,0.703,0.189c0.194,0.127,0.353,0.286,0.476,0.48
				c0.124,0.194,0.215,0.411,0.271,0.65C110.979,49.454,111.008,49.687,111.008,49.913z M110.425,49.913
				c0-0.177-0.021-0.358-0.061-0.545c-0.04-0.185-0.102-0.354-0.185-0.505c-0.083-0.15-0.188-0.272-0.314-0.366
				c-0.125-0.095-0.277-0.142-0.454-0.142c-0.108,0-0.213,0.032-0.318,0.097c-0.105,0.064-0.2,0.139-0.286,0.222
				c-0.086,0.084-0.159,0.169-0.217,0.255c-0.059,0.086-0.092,0.15-0.096,0.193v2.463c0.021,0.011,0.062,0.021,0.124,0.032
				c0.062,0.011,0.129,0.021,0.201,0.028c0.073,0.008,0.146,0.016,0.222,0.023c0.075,0.009,0.14,0.013,0.193,0.013
				c0.188,0,0.356-0.056,0.503-0.169s0.273-0.256,0.375-0.429c0.101-0.172,0.179-0.363,0.232-0.573S110.425,50.101,110.425,49.913z"></path>
		</g>
		<g>
			<path fill="#5C6971" d="M112.407,50.112c0,0.161,0.02,0.334,0.06,0.519c0.041,0.183,0.104,0.354,0.189,0.514
				s0.197,0.291,0.331,0.396c0.135,0.105,0.296,0.158,0.485,0.158c0.113,0,0.225-0.013,0.335-0.036
				c0.111-0.024,0.213-0.053,0.307-0.085c0.094-0.032,0.176-0.065,0.247-0.101c0.07-0.035,0.126-0.066,0.17-0.094l0.169,0.469
				c-0.032,0.016-0.087,0.04-0.166,0.073c-0.078,0.031-0.173,0.063-0.282,0.096c-0.111,0.032-0.235,0.061-0.372,0.085
				s-0.282,0.036-0.432,0.036c-0.318,0-0.579-0.068-0.783-0.205c-0.205-0.139-0.368-0.315-0.49-0.534
				c-0.121-0.218-0.207-0.458-0.255-0.719c-0.049-0.262-0.073-0.518-0.073-0.771c0-0.199,0.032-0.417,0.096-0.654
				c0.065-0.236,0.161-0.456,0.288-0.658c0.126-0.201,0.283-0.37,0.468-0.505c0.186-0.135,0.402-0.201,0.65-0.201
				c0.274,0,0.506,0.064,0.695,0.192c0.189,0.13,0.341,0.294,0.456,0.493c0.117,0.198,0.2,0.416,0.251,0.652
				s0.077,0.463,0.077,0.678v0.202H112.407z M114.234,49.29c-0.035-0.161-0.089-0.312-0.162-0.45
				c-0.071-0.141-0.167-0.259-0.286-0.359c-0.118-0.099-0.26-0.148-0.427-0.148c-0.156,0-0.292,0.047-0.411,0.141
				s-0.215,0.211-0.291,0.351c-0.076,0.14-0.133,0.288-0.174,0.446c-0.04,0.159-0.06,0.306-0.06,0.439h1.862
				C114.287,49.591,114.269,49.451,114.234,49.29z"></path>
			<path fill="#5C6971" d="M117.663,48.526c-0.032-0.016-0.08-0.039-0.145-0.068c-0.065-0.03-0.121-0.045-0.17-0.045
				c-0.107,0-0.21,0.032-0.307,0.093c-0.096,0.062-0.183,0.134-0.258,0.214c-0.076,0.081-0.136,0.16-0.182,0.238
				c-0.045,0.078-0.073,0.136-0.084,0.174v2.912h-0.561v-4.057h0.537v0.565c0.01-0.021,0.039-0.068,0.084-0.142
				c0.045-0.072,0.109-0.147,0.189-0.226s0.177-0.146,0.286-0.205c0.111-0.058,0.236-0.086,0.376-0.086
				c0.07,0,0.146,0.013,0.23,0.038c0.083,0.026,0.141,0.053,0.174,0.078L117.663,48.526z"></path>
			<path fill="#5C6971" d="M120.927,48.385c0.022,0.026,0.051,0.066,0.089,0.121c0.038,0.054,0.074,0.12,0.109,0.198
				s0.065,0.167,0.093,0.266c0.027,0.101,0.04,0.207,0.04,0.32c0,0.205-0.035,0.397-0.105,0.577
				c-0.07,0.181-0.167,0.339-0.291,0.474s-0.271,0.241-0.444,0.319s-0.358,0.117-0.557,0.117c-0.059,0-0.123,0.011-0.19,0.032
				c-0.068,0.021-0.13,0.049-0.19,0.081c-0.058,0.031-0.108,0.071-0.149,0.117s-0.061,0.093-0.061,0.142
				c0,0.118,0.055,0.215,0.166,0.291c0.11,0.075,0.251,0.113,0.424,0.113c0.221,0,0.434,0.025,0.638,0.076s0.385,0.127,0.542,0.227
				c0.156,0.1,0.28,0.221,0.372,0.363c0.092,0.143,0.137,0.306,0.137,0.488c0,0.141-0.04,0.28-0.121,0.42
				c-0.08,0.14-0.195,0.269-0.343,0.388c-0.149,0.118-0.326,0.214-0.533,0.287c-0.208,0.072-0.438,0.108-0.691,0.108
				c-0.226,0-0.438-0.03-0.635-0.089c-0.195-0.06-0.365-0.139-0.504-0.238c-0.14-0.1-0.25-0.218-0.332-0.355
				c-0.08-0.138-0.121-0.287-0.121-0.448c0-0.156,0.042-0.295,0.125-0.416s0.182-0.223,0.295-0.303
				c0.113-0.081,0.229-0.145,0.347-0.19s0.215-0.071,0.291-0.076c-0.038-0.006-0.089-0.021-0.153-0.045
				c-0.064-0.023-0.128-0.058-0.19-0.102c-0.062-0.043-0.115-0.099-0.162-0.169c-0.045-0.07-0.069-0.153-0.069-0.251
				c0-0.064,0.022-0.128,0.065-0.189c0.043-0.062,0.094-0.117,0.154-0.166c0.058-0.048,0.119-0.089,0.181-0.121
				c0.062-0.031,0.115-0.054,0.158-0.064c-0.076-0.026-0.162-0.071-0.258-0.133c-0.098-0.062-0.19-0.148-0.279-0.259
				c-0.089-0.11-0.164-0.248-0.223-0.412c-0.059-0.164-0.089-0.361-0.089-0.593c0-0.172,0.036-0.342,0.109-0.509
				c0.073-0.167,0.172-0.316,0.299-0.448c0.126-0.131,0.274-0.238,0.444-0.318c0.17-0.081,0.352-0.121,0.545-0.121
				c0.124,0,0.241,0.011,0.352,0.034c0.11,0.023,0.19,0.043,0.238,0.059h1.147v0.397H120.927z M120.984,52.707
				c0-0.21-0.106-0.384-0.318-0.521c-0.213-0.138-0.48-0.206-0.804-0.206c-0.134,0-0.264,0.019-0.391,0.057
				c-0.127,0.037-0.238,0.089-0.334,0.153c-0.097,0.065-0.174,0.142-0.234,0.23c-0.059,0.089-0.089,0.185-0.089,0.287
				c0,0.102,0.026,0.2,0.077,0.295c0.051,0.095,0.123,0.178,0.213,0.25c0.092,0.073,0.203,0.131,0.332,0.174
				c0.13,0.043,0.271,0.065,0.427,0.065c0.162,0,0.31-0.022,0.444-0.068c0.135-0.047,0.253-0.105,0.355-0.179
				c0.102-0.072,0.181-0.156,0.238-0.25C120.956,52.899,120.984,52.803,120.984,52.707z M120.692,49.291
				c0-0.295-0.074-0.532-0.222-0.713c-0.148-0.18-0.352-0.27-0.61-0.27c-0.128,0-0.246,0.026-0.351,0.081
				c-0.105,0.053-0.192,0.125-0.262,0.217c-0.07,0.092-0.124,0.196-0.162,0.314c-0.038,0.118-0.057,0.242-0.057,0.37
				c0,0.146,0.015,0.284,0.045,0.415c0.029,0.132,0.076,0.246,0.141,0.342c0.065,0.098,0.149,0.174,0.254,0.23
				c0.105,0.056,0.235,0.084,0.391,0.084c0.151,0,0.279-0.033,0.384-0.101c0.105-0.066,0.191-0.151,0.258-0.254
				c0.067-0.102,0.116-0.216,0.146-0.342C120.677,49.54,120.692,49.415,120.692,49.291z"></path>
		</g>
		<g>
			<path fill="#5C6971" d="M58.991,40.363c0,0.394-0.059,0.761-0.177,1.103c-0.119,0.342-0.281,0.64-0.489,0.893
				s-0.454,0.452-0.739,0.598s-0.595,0.218-0.929,0.218h-1.284v-5.387h1.171c0.344,0,0.666,0.06,0.965,0.179
				c0.299,0.118,0.559,0.288,0.78,0.508c0.221,0.222,0.393,0.49,0.517,0.808C58.929,39.599,58.991,39.96,58.991,40.363z
				 M58.384,40.364c0-0.328-0.048-0.622-0.145-0.88c-0.097-0.259-0.226-0.478-0.388-0.657c-0.162-0.181-0.348-0.319-0.561-0.416
				c-0.212-0.097-0.435-0.146-0.666-0.146h-0.662v4.43h0.686c0.242,0,0.47-0.061,0.683-0.182c0.212-0.121,0.397-0.286,0.553-0.496
				c0.156-0.21,0.278-0.456,0.367-0.738C58.34,40.997,58.384,40.691,58.384,40.364z"></path>
		</g>
		<g>
			<path fill="#5C6971" d="M62.263,43.174V42.6c-0.016,0.027-0.053,0.078-0.109,0.153c-0.057,0.076-0.13,0.151-0.222,0.227
				c-0.092,0.075-0.197,0.143-0.318,0.203c-0.121,0.06-0.254,0.09-0.399,0.09c-0.22,0-0.41-0.039-0.568-0.117
				c-0.158-0.078-0.289-0.181-0.391-0.308c-0.102-0.126-0.177-0.273-0.226-0.44s-0.073-0.339-0.073-0.518v-2.772h0.561v2.724
				c0,0.124,0.015,0.245,0.044,0.36s0.074,0.219,0.132,0.308c0.059,0.088,0.137,0.161,0.233,0.218
				c0.096,0.057,0.213,0.085,0.353,0.085c0.128,0,0.249-0.034,0.361-0.102s0.212-0.144,0.297-0.229
				c0.086-0.087,0.154-0.173,0.205-0.26c0.051-0.086,0.079-0.145,0.084-0.178v-2.926h0.56v4.056H62.263z"></path>
		</g>
		<g>
			<path fill="#5C6971" d="M66.238,43.174l-0.003-0.571c-0.016,0.032-0.055,0.087-0.117,0.162c-0.062,0.075-0.144,0.15-0.247,0.227
				c-0.102,0.075-0.219,0.141-0.351,0.197c-0.131,0.057-0.273,0.085-0.423,0.085c-0.355,0-0.646-0.1-0.875-0.299
				s-0.343-0.479-0.343-0.84c0-0.173,0.049-0.331,0.149-0.476c0.1-0.146,0.226-0.272,0.379-0.38c0.153-0.107,0.32-0.199,0.5-0.274
				s0.348-0.13,0.504-0.161l0.791-0.179v-0.266c0-0.265-0.071-0.486-0.214-0.666c-0.143-0.181-0.359-0.271-0.65-0.271
				c-0.086,0-0.183,0.017-0.291,0.049c-0.107,0.032-0.209,0.069-0.307,0.109s-0.185,0.081-0.263,0.121s-0.127,0.068-0.149,0.084
				l-0.169-0.436c0.021-0.017,0.073-0.043,0.153-0.081c0.081-0.038,0.178-0.079,0.291-0.122c0.113-0.043,0.239-0.081,0.376-0.113
				s0.276-0.049,0.416-0.049c0.409,0,0.736,0.115,0.982,0.343c0.246,0.229,0.369,0.564,0.369,1.006v2.801H66.238z M66.203,41.074
				l-0.677,0.146c-0.112,0.026-0.233,0.067-0.362,0.121c-0.129,0.053-0.246,0.118-0.351,0.193s-0.192,0.162-0.262,0.259
				s-0.105,0.202-0.105,0.314c0,0.226,0.069,0.404,0.206,0.533c0.137,0.129,0.305,0.194,0.503,0.194
				c0.124,0,0.244-0.025,0.359-0.077c0.116-0.051,0.22-0.116,0.314-0.193c0.094-0.078,0.173-0.162,0.237-0.251
				s0.11-0.173,0.137-0.254V41.074z"></path>
			<path fill="#5C6971" d="M69.231,43.233c-0.097,0.026-0.186,0.04-0.266,0.04c-0.162,0-0.294-0.027-0.397-0.081
				c-0.103-0.054-0.185-0.125-0.248-0.214s-0.105-0.192-0.13-0.312c-0.024-0.118-0.037-0.242-0.037-0.371v-4.847h0.561v4.799
				c0,0.167,0.021,0.301,0.064,0.403s0.116,0.153,0.218,0.153c0.038,0,0.086-0.014,0.145-0.041c0.06-0.026,0.1-0.053,0.122-0.08
				l0.169,0.469C69.396,43.179,69.328,43.206,69.231,43.233z"></path>
		</g>
		<g>
			<path fill="#5C6971" d="M70.692,41.242c0,0.162,0.02,0.335,0.061,0.519s0.104,0.354,0.189,0.514
				c0.086,0.16,0.197,0.292,0.332,0.397c0.134,0.105,0.296,0.158,0.484,0.158c0.113,0,0.225-0.013,0.335-0.037
				c0.11-0.023,0.212-0.052,0.307-0.084c0.095-0.032,0.177-0.066,0.247-0.101c0.07-0.035,0.126-0.066,0.169-0.094l0.17,0.469
				c-0.033,0.016-0.087,0.04-0.166,0.072s-0.173,0.064-0.283,0.097c-0.111,0.032-0.235,0.061-0.372,0.085
				c-0.137,0.023-0.281,0.036-0.432,0.036c-0.318,0-0.579-0.068-0.784-0.206s-0.368-0.314-0.49-0.533
				c-0.122-0.218-0.207-0.458-0.255-0.719c-0.049-0.262-0.073-0.519-0.073-0.771c0-0.199,0.033-0.417,0.097-0.654
				c0.064-0.236,0.16-0.456,0.287-0.658c0.126-0.202,0.283-0.37,0.468-0.505c0.186-0.135,0.403-0.202,0.651-0.202
				c0.275,0,0.506,0.065,0.695,0.193c0.188,0.129,0.34,0.293,0.457,0.492c0.116,0.199,0.199,0.417,0.25,0.653
				c0.052,0.236,0.077,0.463,0.077,0.678v0.201H70.692z M72.518,40.421c-0.035-0.161-0.089-0.312-0.161-0.451
				c-0.073-0.14-0.168-0.259-0.286-0.358s-0.261-0.149-0.427-0.149c-0.156,0-0.293,0.048-0.411,0.142s-0.215,0.21-0.29,0.35
				c-0.075,0.141-0.133,0.289-0.173,0.447c-0.041,0.158-0.061,0.305-0.061,0.439h1.861C72.571,40.721,72.553,40.582,72.518,40.421z"></path>
		</g>
		<g>
			<path fill="#5C6971" d="M79.48,43.174v-2.567h-2.224v2.567h-0.589v-5.387h0.589v2.335h2.224v-2.335h0.589v5.387H79.48z"></path>
			<path fill="#5C6971" d="M84.548,41.044c0,0.221-0.028,0.462-0.085,0.723c-0.057,0.262-0.147,0.504-0.271,0.727
				c-0.124,0.225-0.289,0.41-0.494,0.558c-0.205,0.148-0.456,0.223-0.752,0.223c-0.308,0-0.565-0.074-0.772-0.223
				c-0.208-0.147-0.373-0.332-0.494-0.553c-0.121-0.221-0.208-0.462-0.258-0.724c-0.052-0.261-0.077-0.504-0.077-0.73
				c0-0.184,0.03-0.391,0.089-0.622s0.154-0.451,0.283-0.658s0.295-0.382,0.498-0.525c0.203-0.143,0.446-0.214,0.732-0.214
				c0.302,0,0.556,0.07,0.761,0.21c0.205,0.141,0.369,0.312,0.493,0.518c0.124,0.204,0.213,0.424,0.267,0.658
				C84.521,40.644,84.548,40.855,84.548,41.044z M83.964,41.044c0-0.134-0.016-0.29-0.049-0.469
				c-0.032-0.177-0.089-0.347-0.169-0.508c-0.081-0.161-0.186-0.3-0.315-0.412c-0.13-0.113-0.292-0.17-0.485-0.17
				c-0.188,0-0.348,0.055-0.477,0.161c-0.129,0.108-0.234,0.242-0.315,0.4c-0.081,0.159-0.139,0.328-0.174,0.509
				s-0.053,0.343-0.053,0.488c0,0.161,0.015,0.345,0.045,0.549c0.029,0.205,0.082,0.397,0.157,0.577
				c0.076,0.181,0.179,0.333,0.311,0.456c0.132,0.124,0.3,0.187,0.505,0.187c0.199,0,0.365-0.062,0.497-0.187
				c0.132-0.123,0.237-0.275,0.315-0.456c0.078-0.18,0.132-0.372,0.162-0.577C83.949,41.388,83.964,41.205,83.964,41.044z"></path>
			<path fill="#5C6971" d="M88.054,43.055c-0.067,0.031-0.15,0.064-0.25,0.097s-0.212,0.061-0.335,0.085
				c-0.124,0.023-0.253,0.036-0.388,0.036c-0.291,0-0.537-0.065-0.739-0.194c-0.202-0.129-0.365-0.298-0.489-0.508
				c-0.125-0.211-0.215-0.449-0.271-0.716s-0.085-0.536-0.085-0.812c0-0.227,0.037-0.459,0.113-0.699
				c0.076-0.239,0.182-0.456,0.32-0.649c0.137-0.194,0.305-0.354,0.501-0.481c0.197-0.126,0.419-0.189,0.667-0.189
				c0.119,0,0.234,0.011,0.348,0.032c0.113,0.022,0.214,0.048,0.303,0.077c0.088,0.029,0.164,0.06,0.226,0.089
				s0.101,0.053,0.117,0.069l-0.17,0.468c-0.016-0.016-0.054-0.038-0.113-0.068c-0.06-0.029-0.129-0.061-0.21-0.093
				c-0.081-0.032-0.166-0.059-0.255-0.081c-0.088-0.021-0.17-0.032-0.246-0.032c-0.162,0-0.305,0.049-0.432,0.146
				c-0.126,0.097-0.233,0.223-0.319,0.376s-0.152,0.321-0.198,0.505c-0.045,0.183-0.068,0.36-0.068,0.532
				c0,0.21,0.019,0.421,0.057,0.634c0.038,0.213,0.098,0.403,0.182,0.569c0.083,0.167,0.191,0.303,0.323,0.407
				c0.132,0.105,0.29,0.158,0.473,0.158c0.086,0,0.174-0.011,0.266-0.032c0.091-0.021,0.179-0.048,0.263-0.081
				c0.083-0.032,0.159-0.065,0.226-0.101s0.117-0.065,0.149-0.093l0.17,0.477C88.166,42.999,88.121,43.023,88.054,43.055z"></path>
			<path fill="#5C6971" d="M91.54,43.174v-2.72c0-0.107-0.018-0.219-0.052-0.334c-0.035-0.116-0.084-0.222-0.148-0.315
				c-0.064-0.095-0.146-0.171-0.245-0.23c-0.099-0.059-0.212-0.089-0.341-0.089s-0.25,0.031-0.365,0.093
				c-0.115,0.062-0.216,0.135-0.305,0.219c-0.088,0.083-0.16,0.168-0.213,0.254s-0.083,0.153-0.088,0.201v2.922h-0.561v-5.725h0.561
				l-0.004,2.236c0.011-0.032,0.044-0.085,0.101-0.157c0.056-0.072,0.131-0.146,0.225-0.222s0.202-0.142,0.323-0.197
				c0.121-0.057,0.251-0.085,0.391-0.085c0.215,0,0.403,0.039,0.564,0.117s0.294,0.182,0.399,0.312
				c0.105,0.129,0.184,0.275,0.238,0.439c0.053,0.164,0.081,0.329,0.081,0.496v2.785H91.54z"></path>
			<path fill="#5C6971" d="M95.78,42.069c0,0.173-0.035,0.332-0.105,0.481c-0.07,0.147-0.166,0.275-0.287,0.384
				c-0.121,0.107-0.264,0.19-0.428,0.25c-0.164,0.059-0.337,0.089-0.521,0.089c-0.161,0-0.311-0.011-0.448-0.032
				s-0.259-0.049-0.368-0.081c-0.107-0.032-0.2-0.064-0.278-0.098c-0.078-0.032-0.138-0.06-0.182-0.081l0.17-0.453
				c0.027,0.017,0.081,0.043,0.161,0.077c0.081,0.035,0.173,0.069,0.278,0.101c0.105,0.032,0.216,0.062,0.334,0.09
				c0.118,0.026,0.226,0.04,0.323,0.04c0.204,0,0.382-0.06,0.536-0.178c0.153-0.119,0.23-0.283,0.23-0.493
				c0-0.118-0.047-0.225-0.141-0.318c-0.094-0.095-0.213-0.186-0.355-0.274c-0.143-0.089-0.297-0.178-0.464-0.267
				c-0.167-0.089-0.321-0.185-0.464-0.286c-0.143-0.103-0.261-0.216-0.355-0.34c-0.094-0.124-0.141-0.269-0.141-0.437
				c0-0.177,0.035-0.341,0.105-0.492c0.07-0.15,0.167-0.279,0.289-0.387c0.122-0.108,0.26-0.191,0.417-0.251
				c0.156-0.059,0.323-0.089,0.501-0.089c0.107,0,0.217,0.011,0.327,0.032s0.211,0.046,0.303,0.072
				c0.092,0.027,0.17,0.056,0.234,0.085c0.065,0.029,0.11,0.055,0.137,0.076l-0.169,0.443c-0.021-0.021-0.063-0.049-0.125-0.081
				c-0.062-0.031-0.133-0.063-0.214-0.093s-0.166-0.055-0.254-0.077c-0.089-0.021-0.171-0.032-0.247-0.032
				c-0.205,0-0.379,0.063-0.525,0.19s-0.218,0.295-0.218,0.505c0,0.118,0.048,0.229,0.145,0.332
				c0.097,0.102,0.216,0.199,0.359,0.291c0.142,0.091,0.298,0.182,0.468,0.271c0.169,0.089,0.325,0.185,0.468,0.286
				c0.143,0.104,0.262,0.215,0.359,0.336C95.732,41.782,95.78,41.919,95.78,42.069z"></path>
			<path fill="#5C6971" d="M99.242,43.055c-0.067,0.031-0.151,0.064-0.25,0.097s-0.211,0.061-0.335,0.085
				c-0.124,0.023-0.253,0.036-0.388,0.036c-0.291,0-0.538-0.065-0.739-0.194c-0.202-0.129-0.365-0.298-0.489-0.508
				c-0.125-0.211-0.215-0.449-0.272-0.716c-0.057-0.267-0.085-0.536-0.085-0.812c0-0.227,0.038-0.459,0.113-0.699
				c0.076-0.239,0.183-0.456,0.32-0.649c0.138-0.194,0.305-0.354,0.502-0.481c0.196-0.126,0.418-0.189,0.666-0.189
				c0.119,0,0.234,0.011,0.348,0.032c0.113,0.022,0.214,0.048,0.303,0.077s0.165,0.06,0.227,0.089
				c0.062,0.029,0.101,0.053,0.117,0.069l-0.169,0.468c-0.017-0.016-0.054-0.038-0.113-0.068c-0.059-0.029-0.129-0.061-0.21-0.093
				s-0.166-0.059-0.254-0.081c-0.089-0.021-0.171-0.032-0.247-0.032c-0.161,0-0.306,0.049-0.432,0.146
				c-0.127,0.097-0.233,0.223-0.319,0.376s-0.152,0.321-0.198,0.505c-0.046,0.183-0.069,0.36-0.069,0.532
				c0,0.21,0.019,0.421,0.057,0.634s0.098,0.403,0.182,0.569c0.083,0.167,0.191,0.303,0.323,0.407
				c0.132,0.105,0.289,0.158,0.472,0.158c0.086,0,0.175-0.011,0.267-0.032c0.092-0.021,0.179-0.048,0.263-0.081
				c0.083-0.032,0.159-0.065,0.226-0.101c0.068-0.035,0.117-0.065,0.15-0.093l0.169,0.477C99.354,42.999,99.31,43.023,99.242,43.055
				z"></path>
			<path fill="#5C6971" d="M102.728,43.174v-2.72c0-0.107-0.018-0.219-0.053-0.334c-0.035-0.116-0.083-0.222-0.148-0.315
				c-0.064-0.095-0.145-0.171-0.244-0.23c-0.1-0.059-0.213-0.089-0.342-0.089s-0.25,0.031-0.365,0.093
				c-0.115,0.062-0.216,0.135-0.305,0.219c-0.087,0.083-0.159,0.168-0.212,0.254s-0.083,0.153-0.088,0.201v2.922h-0.56v-5.725h0.56
				l-0.004,2.236c0.011-0.032,0.044-0.085,0.101-0.157s0.131-0.146,0.226-0.222c0.093-0.075,0.201-0.142,0.322-0.197
				c0.121-0.057,0.251-0.085,0.391-0.085c0.214,0,0.403,0.039,0.563,0.117c0.162,0.078,0.295,0.182,0.4,0.312
				c0.104,0.129,0.184,0.275,0.238,0.439c0.053,0.164,0.08,0.329,0.08,0.496v2.785H102.728z"></path>
			<path fill="#5C6971" d="M106.951,43.174V42.6c-0.016,0.027-0.053,0.078-0.11,0.153c-0.056,0.076-0.13,0.151-0.222,0.227
				c-0.09,0.075-0.197,0.143-0.318,0.203c-0.121,0.06-0.254,0.09-0.399,0.09c-0.221,0-0.41-0.039-0.568-0.117
				s-0.289-0.181-0.391-0.308c-0.102-0.126-0.177-0.273-0.226-0.44c-0.049-0.167-0.072-0.339-0.072-0.518v-2.772h0.561v2.724
				c0,0.124,0.015,0.245,0.043,0.36c0.029,0.115,0.073,0.219,0.133,0.308c0.059,0.088,0.136,0.161,0.232,0.218
				c0.097,0.057,0.215,0.085,0.354,0.085c0.128,0,0.249-0.034,0.361-0.102c0.112-0.067,0.211-0.144,0.297-0.229
				c0.084-0.087,0.153-0.173,0.204-0.26c0.051-0.086,0.079-0.145,0.085-0.178v-2.926h0.56v4.056H106.951z"></path>
			<path fill="#5C6971" d="M109.937,43.233c-0.098,0.026-0.186,0.04-0.267,0.04c-0.162,0-0.293-0.027-0.396-0.081
				c-0.103-0.054-0.186-0.125-0.248-0.214s-0.106-0.192-0.13-0.312c-0.024-0.118-0.037-0.242-0.037-0.371v-4.847h0.561v4.799
				c0,0.167,0.021,0.301,0.065,0.403c0.042,0.103,0.115,0.153,0.217,0.153c0.038,0,0.086-0.014,0.146-0.041
				c0.059-0.026,0.099-0.053,0.121-0.08l0.169,0.469C110.101,43.179,110.033,43.206,109.937,43.233z"></path>
			<path fill="#5C6971" d="M111.34,41.242c0,0.162,0.02,0.335,0.061,0.519c0.041,0.184,0.104,0.354,0.19,0.514
				c0.086,0.16,0.197,0.292,0.331,0.397s0.296,0.158,0.484,0.158c0.114,0,0.225-0.013,0.335-0.037
				c0.11-0.023,0.213-0.052,0.307-0.084c0.095-0.032,0.176-0.066,0.247-0.101c0.07-0.035,0.127-0.066,0.17-0.094l0.17,0.469
				c-0.033,0.016-0.087,0.04-0.167,0.072c-0.077,0.032-0.172,0.064-0.282,0.097c-0.11,0.032-0.234,0.061-0.371,0.085
				c-0.137,0.023-0.282,0.036-0.432,0.036c-0.318,0-0.579-0.068-0.784-0.206s-0.368-0.314-0.489-0.533
				c-0.123-0.218-0.208-0.458-0.256-0.719c-0.049-0.262-0.073-0.519-0.073-0.771c0-0.199,0.033-0.417,0.097-0.654
				c0.064-0.236,0.161-0.456,0.288-0.658c0.125-0.202,0.282-0.37,0.468-0.505c0.186-0.135,0.403-0.202,0.651-0.202
				c0.274,0,0.506,0.065,0.694,0.193c0.189,0.129,0.342,0.293,0.457,0.492c0.116,0.199,0.2,0.417,0.251,0.653
				c0.051,0.236,0.077,0.463,0.077,0.678v0.201H111.34z M113.167,40.421c-0.034-0.161-0.088-0.312-0.161-0.451
				c-0.073-0.14-0.168-0.259-0.286-0.358s-0.261-0.149-0.427-0.149c-0.155,0-0.292,0.048-0.411,0.142s-0.215,0.21-0.29,0.35
				c-0.076,0.141-0.134,0.289-0.174,0.447c-0.041,0.158-0.061,0.305-0.061,0.439h1.862
				C113.219,40.721,113.202,40.582,113.167,40.421z"></path>
		</g>
	</g>
	<g>
		<g>
			<path fill="#E2001A" d="M24.318,30.791l9.028-9.03c0.438-0.439,0.798-1.154,0.798-1.593v-8.837h-9.826
				c-0.44,0-0.796,0.357-0.796,0.797v18.663C23.522,31.231,23.878,31.231,24.318,30.791"></path>
			<rect x="23.521" y="11.331" fill="none" width="10.624" height="19.79"></rect>
		</g>
	</g>
	<g>
		<g>
			<path fill="#E2001A" d="M20.872,13.002l-9.027,9.026c-0.44,0.442-0.795,1.154-0.795,1.593v8.954h9.822
				c0.44,0,0.798-0.356,0.798-0.797V13.002C21.67,12.561,21.312,12.561,20.872,13.002"></path>
			<rect x="11.05" y="12.671" fill="none" width="10.621" height="19.904"></rect>
		</g>
	</g>
	<path fill="#E2001A" d="M71.059,21.5c0,1.592-0.229,3.067-0.684,4.425c-0.457,1.358-1.101,2.532-1.93,3.519
		c-0.828,0.987-1.836,1.756-3.028,2.31c-1.189,0.551-2.518,0.825-3.982,0.825h-5.323c-0.233,0-0.42-0.072-0.557-0.22
		c-0.138-0.149-0.207-0.34-0.207-0.573V12.139c0-0.234,0.069-0.425,0.207-0.571c0.139-0.15,0.324-0.226,0.557-0.226h5.292
		c1.443,0,2.761,0.245,3.948,0.734c1.192,0.487,2.207,1.177,3.044,2.069c0.84,0.893,1.493,1.959,1.959,3.203
		C70.826,18.587,71.059,19.972,71.059,21.5 M67.196,21.5c0-1.02-0.127-1.971-0.382-2.852c-0.256-0.882-0.633-1.646-1.133-2.282
		c-0.498-0.638-1.102-1.143-1.802-1.515c-0.702-0.372-1.5-0.557-2.393-0.557h-2.392V29.63h2.202c0.891,0,1.698-0.201,2.423-0.605
		c0.723-0.404,1.345-0.968,1.866-1.689c0.52-0.724,0.919-1.58,1.195-2.565C67.057,23.779,67.196,22.689,67.196,21.5"></path>
	<path fill="#E2001A" d="M89.284,32.359c-0.148,0.147-0.337,0.22-0.571,0.22h-2.19c-0.236,0-0.42-0.072-0.555-0.222
		c-0.137-0.147-0.208-0.338-0.208-0.571V23.05h-7.354v8.736c0,0.233-0.073,0.424-0.222,0.571c-0.146,0.149-0.339,0.222-0.571,0.222
		h-2.191c-0.232,0-0.417-0.072-0.556-0.22c-0.136-0.149-0.207-0.34-0.207-0.573V12.139c0-0.234,0.07-0.425,0.207-0.571
		c0.139-0.15,0.323-0.226,0.556-0.226h2.191c0.231,0,0.424,0.076,0.571,0.226c0.148,0.146,0.222,0.337,0.222,0.571v7.796h7.354
		v-7.796c0-0.234,0.071-0.425,0.208-0.571c0.135-0.15,0.319-0.226,0.555-0.226h2.19c0.234,0,0.423,0.076,0.571,0.226
		c0.147,0.146,0.224,0.337,0.224,0.571v19.646C89.509,32.019,89.432,32.21,89.284,32.359"></path>
	<path fill="#5C6971" d="M106.754,26.467c0,0.954-0.192,1.813-0.575,2.578c-0.381,0.765-0.906,1.407-1.577,1.93
		c-0.667,0.518-1.448,0.916-2.339,1.194c-0.891,0.274-1.836,0.41-2.833,0.41h-4.874c-0.149,0-0.277-0.053-0.381-0.156
		c-0.108-0.106-0.161-0.234-0.161-0.382V11.854c0-0.148,0.053-0.271,0.161-0.367c0.104-0.096,0.232-0.145,0.381-0.145h5.258
		c0.831,0,1.631,0.108,2.407,0.318c0.775,0.213,1.456,0.539,2.041,0.972c0.586,0.435,1.05,0.987,1.401,1.657
		c0.352,0.666,0.527,1.456,0.527,2.37c0,0.572-0.129,1.119-0.384,1.64c-0.255,0.518-0.576,0.986-0.957,1.399
		c-0.384,0.415-0.805,0.765-1.262,1.049c-0.458,0.287-0.9,0.496-1.324,0.622c0.592,0.106,1.162,0.303,1.702,0.591
		c0.541,0.287,1.019,0.65,1.434,1.099c0.412,0.445,0.741,0.958,0.985,1.543C106.629,25.185,106.754,25.807,106.754,26.467
		 M103.827,16.75c0-1.083-0.373-1.942-1.117-2.578c-0.746-0.637-1.712-0.954-2.902-0.954h-3.474v7.35h3.379
		c0.531,0,1.041-0.093,1.531-0.286c0.487-0.191,0.922-0.457,1.306-0.796c0.382-0.337,0.689-0.741,0.926-1.208
		C103.707,17.812,103.827,17.301,103.827,16.75 M104.341,26.375c0-1.231-0.42-2.203-1.258-2.913
		c-0.841-0.712-1.931-1.068-3.271-1.068h-3.477v8.314h3.477c0.617,0,1.202-0.106,1.754-0.321c0.552-0.211,1.038-0.508,1.451-0.891
		c0.415-0.382,0.74-0.838,0.972-1.368C104.225,27.597,104.341,27.012,104.341,26.375"></path>
	<path fill="#5C6971" d="M125.61,32.039c-0.042,0.147-0.117,0.277-0.222,0.384c-0.107,0.104-0.232,0.156-0.384,0.156h-1.592
		c-0.147,0-0.282-0.053-0.399-0.156c-0.116-0.106-0.195-0.236-0.239-0.384l-3.521-17.799l-3.459,17.799
		c-0.041,0.147-0.122,0.277-0.238,0.384c-0.116,0.104-0.251,0.156-0.398,0.156h-1.593c-0.146,0-0.28-0.053-0.396-0.156
		c-0.119-0.106-0.198-0.236-0.241-0.384l-4.086-20.187c-0.042-0.149-0.016-0.271,0.078-0.366c0.098-0.095,0.221-0.143,0.369-0.143
		h1.337c0.34,0,0.553,0.171,0.638,0.509l3.195,17.831l3.458-17.831c0.084-0.338,0.298-0.509,0.637-0.509h1.592
		c0.321,0,0.522,0.171,0.606,0.509l3.488,17.831l3.164-17.831c0.086-0.338,0.287-0.509,0.606-0.509h1.273
		c0.147,0,0.264,0.048,0.352,0.143c0.085,0.095,0.106,0.217,0.063,0.366L125.61,32.039z"></path>
	<g>
		<g>
			<path fill="#E2001A" d="M20.872,11.331H1.221c-0.44,0-0.796,0.357-0.796,0.797v19.65c0,0.44,0.356,0.797,0.796,0.797h9.829
				v-8.954c0-0.439,0.355-1.151,0.795-1.593l9.027-9.026c0.44-0.441,0.798-0.441,0.798,0v-0.874
				C21.67,11.688,21.312,11.331,20.872,11.331"></path>
			<rect x="0.425" y="11.331" fill="none" width="21.246" height="21.244"></rect>
		</g>
	</g>
	<g>
		<g>
			<path fill="#E2001A" d="M24.318,11.331h9.826V0.516c0-0.439-0.36-0.439-0.798,0l-9.028,9.03c-0.44,0.44-0.796,1.152-0.796,1.593
				v0.988C23.522,11.688,23.878,11.331,24.318,11.331"></path>
			<rect x="23.521" y="0.187" fill="none" width="10.624" height="11.941"></rect>
		</g>
	</g>
	<g opacity="0.8">
		<g>
			<path fill="#5C6971" d="M43.97,11.331h-9.825v8.837c0,0.439-0.361,1.154-0.799,1.593l-9.028,9.03c-0.44,0.44-0.796,0.44-0.796,0
				v0.987c0,0.44,0.356,0.797,0.796,0.797H43.97c0.438,0,0.796-0.356,0.796-0.797v-19.65C44.766,11.688,44.407,11.331,43.97,11.331"></path>
			<rect x="23.521" y="11.331" fill="none" width="21.245" height="21.244"></rect>
		</g>
	</g>
	<g opacity="0.6">
		<g>
			<path fill="#5C6971" d="M24.318,30.791l9.028-9.03c0.438-0.439,0.798-1.154,0.798-1.593v-8.837h-9.826
				c-0.44,0-0.796,0.357-0.796,0.797v18.663C23.522,31.231,23.878,31.231,24.318,30.791"></path>
			<rect x="23.521" y="11.331" fill="none" width="10.624" height="19.79"></rect>
		</g>
	</g>
	<g opacity="0.8">
		<g>
			<path fill="#5C6971" d="M20.872,32.575H11.05v10.699c0,0.438,0.355,0.438,0.795,0l9.027-9.029
				c0.44-0.438,0.798-1.152,0.798-1.595v-0.872C21.67,32.219,21.312,32.575,20.872,32.575"></path>
			<rect x="11.05" y="31.778" fill="none" width="10.621" height="11.825"></rect>
		</g>
	</g>
	<g opacity="0.6">
		<g>
			<path fill="#5C6971" d="M20.872,13.002l-9.027,9.026c-0.44,0.442-0.795,1.154-0.795,1.593v8.954h9.822
				c0.44,0,0.798-0.356,0.798-0.797V13.002C21.67,12.561,21.312,12.561,20.872,13.002"></path>
			<rect x="11.05" y="12.671" fill="none" width="10.621" height="19.904"></rect>
		</g>
	</g>
	<g>
		<path fill="#5C6971" d="M151.664,32.564V11.366h2.312v21.198H151.664z M162.143,32.564l-8.14-11.028l7.758-10.17h2.639
			l-7.886,10.043l8.649,11.155H162.143z"></path>
		<path fill="#5C6971" d="M175.778,32.564l0.01-2.265c-0.063,0.128-0.218,0.34-0.462,0.636c-0.245,0.296-0.568,0.594-0.972,0.891
			c-0.403,0.296-0.865,0.556-1.386,0.777c-0.52,0.224-1.077,0.334-1.672,0.334c-1.401,0-2.554-0.391-3.457-1.175
			c-0.901-0.783-1.354-1.885-1.354-3.303c0-0.677,0.196-1.302,0.589-1.874c0.394-0.57,0.893-1.068,1.498-1.493
			c0.604-0.423,1.264-0.782,1.975-1.078c0.712-0.296,1.376-0.509,1.991-0.636l3.122-0.697v-1.049c0-1.037-0.281-1.91-0.843-2.619
			c-0.562-0.709-1.415-1.064-2.559-1.064c-0.34,0-0.721,0.064-1.146,0.191c-0.423,0.127-0.826,0.27-1.208,0.429
			c-0.381,0.159-0.727,0.318-1.033,0.477c-0.308,0.159-0.504,0.27-0.588,0.333l-0.668-1.718c0.084-0.064,0.285-0.171,0.604-0.32
			s0.699-0.309,1.145-0.48s0.938-0.32,1.479-0.448c0.541-0.128,1.087-0.192,1.638-0.192c1.61,0,2.897,0.451,3.86,1.351
			c0.962,0.901,1.443,2.221,1.443,3.958v11.032H175.778z M175.661,24.278l-2.681,0.572c-0.447,0.106-0.926,0.266-1.436,0.477
			c-0.511,0.213-0.974,0.467-1.388,0.763c-0.416,0.297-0.762,0.636-1.038,1.019c-0.276,0.38-0.415,0.795-0.415,1.24
			c0,0.891,0.271,1.589,0.813,2.099c0.543,0.509,1.208,0.763,1.995,0.763c0.489,0,0.963-0.101,1.42-0.302
			c0.458-0.201,0.872-0.455,1.245-0.764c0.372-0.308,0.686-0.636,0.941-0.986c0.255-0.349,0.436-0.683,0.542-1V24.278z"></path>
		<path fill="#5C6971" d="M189.572,18.698c-0.128-0.063-0.318-0.153-0.572-0.27c-0.255-0.117-0.478-0.175-0.668-0.175
			c-0.425,0-0.827,0.123-1.208,0.366c-0.382,0.244-0.721,0.524-1.019,0.842c-0.296,0.318-0.534,0.632-0.715,0.938
			c-0.18,0.308-0.292,0.536-0.334,0.685v11.48h-2.194V16.596h2.101v2.225c0.043-0.084,0.152-0.27,0.333-0.556
			c0.18-0.286,0.429-0.583,0.746-0.89c0.318-0.308,0.694-0.576,1.129-0.807s0.928-0.346,1.479-0.346
			c0.274,0,0.577,0.052,0.906,0.156c0.328,0.104,0.556,0.208,0.683,0.311L189.572,18.698z"></path>
		<path fill="#5C6971" d="M197.797,32.778c-0.381,0.106-0.731,0.159-1.049,0.159c-0.637,0-1.156-0.106-1.559-0.318
			c-0.402-0.211-0.727-0.492-0.97-0.842c-0.244-0.35-0.413-0.759-0.509-1.224c-0.096-0.467-0.143-0.954-0.143-1.464V10.012h2.193
			v18.887c0,0.657,0.085,1.188,0.255,1.59s0.455,0.604,0.858,0.604c0.148,0,0.339-0.053,0.572-0.159
			c0.232-0.105,0.392-0.212,0.478-0.318l0.667,1.844C198.443,32.567,198.178,32.672,197.797,32.778z"></path>
		<path fill="#5C6971" d="M210.737,28.201c0,0.679-0.138,1.31-0.413,1.892c-0.274,0.583-0.65,1.086-1.127,1.51
			c-0.476,0.424-1.037,0.753-1.682,0.985c-0.646,0.233-1.328,0.35-2.047,0.35c-0.636,0-1.223-0.042-1.763-0.128
			c-0.54-0.085-1.021-0.192-1.444-0.32c-0.424-0.127-0.788-0.255-1.096-0.384c-0.307-0.128-0.545-0.234-0.714-0.319l0.667-1.784
			c0.106,0.062,0.318,0.163,0.635,0.302c0.318,0.138,0.683,0.271,1.095,0.397s0.852,0.244,1.317,0.35
			c0.465,0.106,0.888,0.159,1.269,0.159c0.805,0,1.508-0.232,2.11-0.699c0.604-0.465,0.904-1.11,0.904-1.936
			c0-0.466-0.186-0.885-0.556-1.255c-0.371-0.371-0.837-0.729-1.397-1.08c-0.562-0.349-1.172-0.699-1.829-1.048
			c-0.656-0.349-1.266-0.725-1.826-1.127c-0.562-0.401-1.028-0.847-1.399-1.334c-0.37-0.486-0.556-1.058-0.556-1.714
			c0-0.699,0.138-1.344,0.413-1.936c0.276-0.593,0.652-1.102,1.13-1.525c0.477-0.423,1.022-0.751,1.638-0.984
			c0.614-0.232,1.271-0.349,1.971-0.349c0.424,0,0.854,0.042,1.288,0.127c0.434,0.084,0.832,0.179,1.192,0.286
			c0.36,0.105,0.667,0.216,0.922,0.333c0.254,0.116,0.435,0.216,0.54,0.3l-0.667,1.747c-0.085-0.085-0.249-0.19-0.492-0.317
			c-0.244-0.127-0.525-0.25-0.844-0.367c-0.318-0.117-0.651-0.217-1.001-0.302c-0.351-0.084-0.673-0.127-0.97-0.127
			c-0.806,0-1.494,0.25-2.066,0.747c-0.573,0.498-0.859,1.16-0.859,1.986c0,0.467,0.191,0.902,0.572,1.305s0.853,0.783,1.413,1.144
			c0.562,0.36,1.177,0.715,1.843,1.065c0.668,0.349,1.282,0.725,1.843,1.128c0.562,0.402,1.033,0.842,1.414,1.319
			C210.547,27.073,210.737,27.609,210.737,28.201z"></path>
		<path fill="#5C6971" d="M221.549,18.698c-0.128-0.063-0.318-0.153-0.573-0.27s-0.477-0.175-0.667-0.175
			c-0.425,0-0.827,0.123-1.208,0.366c-0.383,0.244-0.721,0.524-1.019,0.842c-0.297,0.318-0.535,0.632-0.715,0.938
			c-0.181,0.308-0.292,0.536-0.334,0.685v11.48h-2.195V16.596h2.102v2.225c0.042-0.084,0.152-0.27,0.333-0.556
			c0.179-0.286,0.428-0.583,0.746-0.89c0.317-0.308,0.693-0.576,1.128-0.807c0.436-0.23,0.929-0.346,1.479-0.346
			c0.275,0,0.577,0.052,0.906,0.156c0.328,0.104,0.556,0.208,0.683,0.311L221.549,18.698z"></path>
		<path fill="#5C6971" d="M234.602,32.564v-2.258c-0.064,0.106-0.207,0.308-0.429,0.604c-0.223,0.297-0.514,0.594-0.874,0.89
			c-0.359,0.297-0.778,0.561-1.254,0.791c-0.477,0.23-1.001,0.346-1.571,0.346c-0.868,0-1.614-0.154-2.238-0.461
			c-0.625-0.308-1.139-0.71-1.54-1.208c-0.403-0.498-0.699-1.075-0.89-1.733c-0.19-0.656-0.285-1.335-0.285-2.034V16.596h2.194
			v10.708c0,0.488,0.058,0.958,0.175,1.414c0.115,0.455,0.291,0.858,0.524,1.207c0.232,0.35,0.539,0.636,0.921,0.858
			s0.848,0.333,1.398,0.333c0.51,0,0.985-0.132,1.431-0.396c0.445-0.266,0.837-0.567,1.176-0.906
			c0.34-0.338,0.609-0.677,0.811-1.017c0.201-0.339,0.312-0.572,0.334-0.699V16.596h2.194v15.968H234.602z"></path>
		<path fill="#5C6971" d="M251.008,32.564V21.856c0-0.423-0.068-0.862-0.206-1.319c-0.139-0.455-0.334-0.868-0.588-1.239
			c-0.255-0.371-0.577-0.673-0.969-0.906c-0.393-0.232-0.842-0.349-1.351-0.349c-0.508,0-0.989,0.122-1.444,0.365
			c-0.456,0.244-0.858,0.529-1.208,0.858c-0.35,0.328-0.63,0.662-0.842,1c-0.212,0.34-0.328,0.604-0.35,0.795v11.502h-2.194V10.012
			h2.194l-0.001,8.81c0.042-0.127,0.175-0.333,0.396-0.618c0.224-0.286,0.52-0.576,0.891-0.872c0.37-0.296,0.794-0.555,1.271-0.778
			c0.477-0.222,0.99-0.333,1.542-0.333c0.847,0,1.589,0.154,2.225,0.461c0.635,0.308,1.16,0.716,1.573,1.224
			s0.726,1.086,0.937,1.732c0.212,0.646,0.318,1.298,0.318,1.955v10.969H251.008z"></path>
		<path fill="#5C6971" d="M259.62,24.953c0,0.636,0.079,1.315,0.238,2.036s0.408,1.394,0.747,2.02
			c0.34,0.626,0.774,1.145,1.305,1.558c0.529,0.414,1.165,0.62,1.906,0.62c0.445,0,0.886-0.047,1.32-0.143
			c0.436-0.096,0.838-0.207,1.208-0.334c0.371-0.127,0.695-0.26,0.971-0.397c0.274-0.139,0.497-0.26,0.667-0.366l0.668,1.845
			c-0.127,0.063-0.345,0.16-0.652,0.287s-0.679,0.255-1.113,0.382s-0.922,0.238-1.462,0.335c-0.541,0.095-1.107,0.143-1.701,0.143
			c-1.25,0-2.279-0.27-3.084-0.81c-0.806-0.541-1.446-1.24-1.923-2.099c-0.478-0.857-0.812-1.8-1.003-2.827s-0.286-2.04-0.286-3.035
			c0-0.784,0.127-1.642,0.383-2.574c0.254-0.933,0.63-1.796,1.129-2.59c0.498-0.796,1.113-1.458,1.846-1.987
			c0.731-0.53,1.586-0.794,2.562-0.794c1.081,0,1.992,0.254,2.735,0.762c0.742,0.508,1.343,1.154,1.798,1.938
			c0.456,0.782,0.784,1.64,0.987,2.571c0.201,0.931,0.302,1.821,0.302,2.667v0.793H259.62z M266.837,21.719
			c-0.139-0.633-0.351-1.224-0.636-1.773c-0.288-0.55-0.664-1.02-1.131-1.41c-0.467-0.391-1.029-0.586-1.688-0.586
			c-0.615,0-1.156,0.185-1.623,0.554c-0.467,0.37-0.85,0.829-1.146,1.378c-0.298,0.548-0.527,1.135-0.686,1.758
			c-0.159,0.623-0.238,1.198-0.238,1.726h7.354C267.044,22.902,266.973,22.352,266.837,21.719z"></path>
	</g>
</g>
</svg>